PathFileType	4	(X/Y/Z)	C:\Users\Basilio\Documents\Thesis Gigler\squatting_fais\c3dfiles\040\SJ_pre4\markers_experimental.trc
DataRate	CameraRate	NumFrames	NumMarkers	Units	OrigDataRate	OrigDataStartFrame	OrigNumFrames
200.000000	200.000000	4	63	mm	200.000000	0	1189
Frame#	Time	FHD			LBHD			RBHD			C7			T10			CLAV			LSHO			LUUPA			LMUPA			LDUPA			LLEP			LMEP			LRAD			LUL			LRFIN			RSHO			RUPA1			RMUPA			RDUPA			RLEP			RMEP			RRAD			RUL			RUFIN			LASI			RASI			USACR			LSACR			RSACR			LTHI1			LTHI2			LTHI3			LTHI4			LLFC			LMFC			LTIB1			LTIB2			LTIB3			LTIB4			LLMAL			LMMAL			LHEE			LMT1			LMT2			LMT5			RTHI			RTHI2			RTHI3			RTHI4			RLFC			RMFC			RTIB1			RTIB2			RTIB3			RTIB4			RLMAL			RMMAL			RHEE			RMT1			RMT2			RMT5			*61			*62			
		X1	Y1	Z1	X2	Y2	Z2	X3	Y3	Z3	X4	Y4	Z4	X5	Y5	Z5	X6	Y6	Z6	X7	Y7	Z7	X8	Y8	Z8	X9	Y9	Z9	X10	Y10	Z10	X11	Y11	Z11	X12	Y12	Z12	X13	Y13	Z13	X14	Y14	Z14	X15	Y15	Z15	X16	Y16	Z16	X17	Y17	Z17	X18	Y18	Z18	X19	Y19	Z19	X20	Y20	Z20	X21	Y21	Z21	X22	Y22	Z22	X23	Y23	Z23	X24	Y24	Z24	X25	Y25	Z25	X26	Y26	Z26	X27	Y27	Z27	X28	Y28	Z28	X29	Y29	Z29	X30	Y30	Z30	X31	Y31	Z31	X32	Y32	Z32	X33	Y33	Z33	X34	Y34	Z34	X35	Y35	Z35	X36	Y36	Z36	X37	Y37	Z37	X38	Y38	Z38	X39	Y39	Z39	X40	Y40	Z40	X41	Y41	Z41	X42	Y42	Z42	X43	Y43	Z43	X44	Y44	Z44	X45	Y45	Z45	X46	Y46	Z46	X47	Y47	Z47	X48	Y48	Z48	X49	Y49	Z49	X50	Y50	Z50	X51	Y51	Z51	X52	Y52	Z52	X53	Y53	Z53	X54	Y54	Z54	X55	Y55	Z55	X56	Y56	Z56	X57	Y57	Z57	X58	Y58	Z58	X59	Y59	Z59	X60	Y60	Z60	X61	Y61	Z61	X62	Y62	Z62	X63	Y63	Z63	

1	0	-171.4629516601563	1734.123046875	-956.1499023437502	-305.6531677246094	1704.848388671875	-987.2861938476565	-352.6305236816407	1673.9580078125	-851.458679199219	-390.9380493164064	1551.747314453125	-905.1010742187502	-446.2469177246095	1232.631713867188	-905.241394042969	-272.7298583984376	1471.759765625	-906.2854614257815	-344.1613159179688	1528.423217773438	-1074.44091796875	-434.6842041015626	1425.353881835938	-1226.114135742188	-416.4278564453126	1378.217041015625	-1230.468139648438	-462.190155029297	1379.595092773438	-1271.015502929688	-496.5997619628907	1334.308349609375	-1311.133911132813	-556.1690673828126	1324.242065429688	-1261.624145507813	-435.306610107422	1105.114135742188	-1137.9775390625	-389.2942810058595	1086.949096679688	-1193.999633789063	-380.1496276855469	1110.358276367188	-1093.320922851563	-341.5462951660157	1507.204956054688	-734.9216918945314	-457.8913879394532	1406.94189453125	-596.6124267578126	-431.8922119140626	1366.983764648438	-581.1302490234376	-482.4083557128907	1360.724243164063	-549.9895629882814	-493.2199707031251	1301.34912109375	-510.3244018554689	-549.7125854492189	1274.7392578125	-569.0066528320314	-383.5765075683594	1097.4677734375	-678.6529541015626	-341.7806396484376	1076.094604492188	-620.2980957031251	-331.3811340332032	1108.164184570313	-723.0256958007814	-285.3180847167969	1045.868774414063	-1007.002868652344	-288.1657104492188	1036.230102539063	-782.6468505859377	-468.3634338378907	1100.612548828125	-891.2818603515627	-476.2862243652345	1071.6923828125	-919.3878173828127	-483.0375061035157	1070.80615234375	-865.3319091796877	-403.278289794922	800.7126464843752	-1091.220825195313	-363.2626342773438	727.6929931640626	-1107.808837890625	-316.2165222167969	733.1199340820314	-1109.261352539063	-382.5915222167969	672.4857177734376	-1098.380004882813	-357.4395751953126	542.0436401367189	-1106.6337890625	-356.5312500000001	505.8114013671876	-978.8156738281252	-325.7194519042969	315.2739562988282	-1095.599975585938	-396.2118225097657	282.8703308105469	-1139.64990234375	-354.1516113281251	273.6337280273438	-1126.352783203125	-346.9112243652344	190.8072509765625	-1100.896606445313	-414.5736694335939	100.7014999389649	-1121.554809570313	-376.4281921386719	108.8878402709961	-1041.305786132813	-465.4366149902345	43.49891662597657	-1075.988159179688	-242.5951690673829	59.30617904663087	-1080.446411132813	-248.6500396728516	56.39191818237306	-1126.62060546875	-300.6319885253907	31.88348197937012	-1170.328735351563	-392.4981079101564	795.9432373046877	-684.9215087890626	-362.7709350585938	736.0587158203126	-675.1325073242189	-330.1303405761719	735.0923461914064	-677.0874023437501	-396.8266601562501	660.4782714843751	-681.6890869140626	-392.970428466797	526.5020141601564	-673.9830932617189	-368.1118774414063	498.8374328613282	-801.444274902344	-354.7454528808594	336.8850708007813	-663.0811767578126	-435.4220275878907	269.9396667480469	-638.7702026367189	-390.1714782714845	261.0018005371094	-641.9243164062501	-373.0917053222657	210.0324859619141	-664.3353881835939	-435.2262268066407	102.3686141967774	-634.9447021484376	-405.6903076171876	104.7289657592774	-720.2584838867189	-489.0162658691407	46.04585266113282	-691.3442993164064	-266.6499023437501	58.21357727050783	-666.3245239257814	-276.6961364746094	61.32952880859376	-626.8420410156251	-323.1071472167969	35.6688346862793	-579.7896728515626	nan	nan	nan	nan	nan	nan	
2	0.005	-172.2188110351563	1734.546020507813	-957.3959960937502	-306.4017639160157	1704.806762695313	-988.3250732421877	-352.9909362792969	1673.85009765625	-852.3096923828127	-391.0735473632814	1551.620849609375	-906.2932739257815	-446.2030639648439	1232.487182617188	-906.223571777344	-272.7086181640626	1471.77294921875	-907.3299560546877	-343.9013366699219	1528.301879882813	-1075.720581054688	-434.2911071777345	1424.61376953125	-1227.073852539063	-416.0216064453126	1377.598754882813	-1231.30517578125	-461.5552062988282	1378.780151367188	-1271.982177734375	-496.4455871582032	1333.406005859375	-1311.667846679688	-555.7273559570314	1323.334716796875	-1262.100708007813	-434.4818725585939	1104.536987304688	-1138.278076171875	-388.2973937988282	1086.364990234375	-1194.4765625	-379.2170104980469	1109.968872070313	-1093.77685546875	-341.5717773437501	1507.043823242188	-736.0637207031251	-458.4169311523439	1406.733764648438	-598.1360473632814	-432.278533935547	1366.73291015625	-582.5219726562501	-482.9848632812501	1360.432861328125	-551.5096435546876	-493.3785400390626	1301.051513671875	-512.1608276367189	-550.0546264648439	1274.361572265625	-570.5636596679689	-383.7556762695313	1096.78466796875	-679.5372314453126	-341.9313354492188	1075.464721679688	-621.3089599609376	-331.4393310546876	1107.75244140625	-723.9172973632814	-285.0886840820313	1045.689453125	-1007.793273925781	-288.3872375488282	1036.171875	-783.261169433594	-468.423797607422	1100.663696289063	-892.370056152344	-476.3907165527345	1071.795043945313	-920.3317871093752	-482.9932556152345	1070.875732421875	-866.197692871094	-402.9191894531251	800.5173950195315	-1091.881591796875	-362.8894348144532	727.4820556640626	-1107.78173828125	-315.7879333496094	733.0980224609376	-1109.736083984375	-382.1753540039063	672.3699951171876	-1098.880004882813	-356.7127990722657	541.4016113281251	-1107.134521484375	-356.3932495117188	505.8362121582032	-979.0954589843752	-324.9129638671876	314.5516052246094	-1095.540283203125	-395.7957153320314	282.8171691894532	-1139.917358398438	-353.8258056640626	273.4334106445313	-1126.453247070313	-346.7735290527344	190.6957550048828	-1100.969116210938	-414.5130920410157	100.6990966796875	-1121.572631835938	-376.4341125488282	108.8986892700196	-1041.327514648438	-465.4373168945314	43.51162719726563	-1076.01708984375	-243.0957489013672	59.35222244262697	-1080.430297851563	-248.6238861083985	56.38891220092775	-1126.64501953125	-300.6095275878907	31.88109397888184	-1170.348754882813	-393.3394470214845	796.0323486328127	-685.8575439453126	-363.8265075683594	736.2515258789064	-675.6231689453126	-331.0329895019532	735.2265014648439	-677.7115478515626	-397.4662170410157	661.0590209960939	-682.1925048828126	-393.9080810546876	526.5682983398439	-674.5951538085939	-368.4937438964844	498.7920227050782	-801.9568481445315	-355.3880615234376	337.0931091308594	-663.2934570312501	-436.1627807617189	270.0498962402344	-639.1540527343751	-390.6997680664064	261.2082824707032	-642.4279785156251	-373.5732116699219	210.2565002441407	-664.4642333984376	-435.5173339843751	102.3811798095703	-635.0048217773439	-405.9829101562501	104.859977722168	-720.3248291015626	-489.1647949218751	45.92630004882813	-691.3777465820314	-266.8499755859376	58.64609909057619	-666.4202270507814	-277.7117309570313	61.43175506591798	-627.5829467773439	-323.3273925781251	35.84863281250001	-579.9778442382814	nan	nan	nan	nan	nan	nan	
3	0.01	-173.0436553955078	1735.078735351563	-958.6338500976565	-307.1211547851563	1704.74951171875	-989.3452758789065	-353.3546447753907	1673.774169921875	-853.4008789062502	-391.1468505859376	1551.581909179688	-907.3411254882815	-446.1437988281251	1232.439331054688	-907.1230468750002	-272.7102355957032	1471.736694335938	-908.292175292969	-343.6351318359376	1528.198974609375	-1076.782470703125	-434.0607910156251	1423.981811523438	-1227.951538085938	-415.7661743164064	1377.0107421875	-1232.008911132813	-461.3944702148439	1377.869750976563	-1272.695922851563	-495.8270263671876	1332.319702148438	-1312.348266601563	-555.3141479492189	1322.320922851563	-1262.59814453125	-433.4574279785157	1103.87451171875	-1138.5576171875	-387.4037475585939	1085.713012695313	-1194.78515625	-378.2824401855469	1109.530151367188	-1094.168334960938	-341.6365661621094	1506.921264648438	-737.1863403320314	-458.7274780273439	1406.491943359375	-599.6111450195314	-432.6947326660157	1366.484130859375	-583.8967895507814	-483.5175170898439	1360.26025390625	-552.8602294921876	-493.9832458496095	1300.238891601563	-513.3092041015626	-550.3863525390626	1274.007934570313	-572.1899414062501	-386.0853881835939	1096.485229492188	-681.3225708007814	-342.1940307617188	1075.058959960938	-622.0496826171876	-331.7122802734376	1107.381713867188	-724.6246337890626	-284.8347473144532	1045.515747070313	-1008.617065429688	-288.5526428222657	1036.116455078125	-783.889831542969	-468.4475097656251	1100.7412109375	-893.1926879882815	-476.3633117675782	1071.83642578125	-921.2800903320315	-483.005584716797	1070.98046875	-867.1284179687502	-402.6385192871095	800.3835449218752	-1092.4873046875	-362.5507812500001	727.3355102539064	-1108.206787109375	-315.4835510253907	733.0318603515626	-1110.1826171875	-381.7709960937501	672.2551269531251	-1099.349853515625	-356.4784851074219	541.8405761718751	-1107.460327148438	-356.1352233886719	505.8611145019532	-979.321960449219	-325.2318725585938	314.9356689453126	-1095.75244140625	-395.5216064453126	282.7295532226563	-1140.115600585938	-353.5025329589844	273.1502380371094	-1126.551879882813	-346.9193725585938	191.1903533935547	-1100.902709960938	-414.4151916503907	100.6989669799805	-1121.592895507813	-376.4288635253907	108.855827331543	-1041.34130859375	-465.4548339843751	43.4995346069336	-1076.02880859375	-241.2233276367188	57.99718475341798	-1080.00927734375	-248.6086120605469	56.371883392334	-1126.639892578125	-300.5066833496094	31.84261131286622	-1170.345703125	-394.4003295898439	796.1497192382815	-686.6987915039064	-364.7876586914063	736.3278808593751	-676.4159545898439	-331.6729431152344	735.2655029296876	-678.3151855468751	-398.4927978515626	661.2362670898439	-683.0643310546876	-394.7224426269532	526.6877441406251	-675.2254638671876	-369.0297241210938	498.7597045898439	-802.4419555664065	-356.0726318359376	337.4433288574219	-663.4369506835939	-437.0029602050782	270.2552490234376	-639.5148315429689	-391.3465881347657	261.6669311523438	-641.7043457031251	-374.1360778808594	210.4508209228516	-664.6145019531251	-435.7577209472657	102.3881988525391	-635.0824584960939	-406.3058471679689	104.9758834838867	-720.3612670898439	-489.2797851562501	45.7912826538086	-691.3866577148439	-267.2015075683594	59.18016433715822	-666.5574340820314	-277.9139099121094	61.89624786376955	-627.6810913085939	-323.4293518066407	36.06180572509766	-580.2345581054689	nan	nan	nan	nan	nan	nan	
4	0.015	-173.6572723388672	1735.654052734375	-960.0379028320315	-307.7746582031251	1704.72607421875	-990.4338989257815	-353.7030639648438	1673.48388671875	-854.1997680664065	-391.1258239746095	1551.446899414063	-908.4274902343752	-446.1854248046876	1232.359008789063	-907.9440917968752	-272.5340270996094	1471.7822265625	-909.3295898437502	-343.5266113281251	1528.110595703125	-1077.856567382813	-433.7174377441407	1423.280029296875	-1228.78271484375	-415.5133361816407	1376.597900390625	-1232.880249023438	-461.2415466308595	1376.92626953125	-1273.244262695313	-495.4791870117189	1331.18603515625	-1312.88427734375	-554.9204711914064	1321.048217773438	-1263.01318359375	-432.4179992675782	1103.05126953125	-1138.823486328125	-386.6419677734376	1084.882446289063	-1194.982788085938	-377.2676391601563	1108.992309570313	-1094.553100585938	-341.8012695312501	1506.799438476563	-738.0680541992189	-459.2935791015626	1406.339965820313	-600.8142089843751	-433.1590576171876	1366.286376953125	-584.9857177734376	-484.0361938476564	1360.005493164063	-554.2933349609376	-494.9359436035157	1300.5478515625	-514.6097412109376	-550.5236206054689	1273.655883789063	-573.6654663085939	-384.061004638672	1095.808959960938	-681.4066772460939	-342.7235717773438	1074.525634765625	-622.6527709960939	-331.6328125000001	1106.959716796875	-725.3472900390626	-284.7184143066407	1045.37353515625	-1009.247619628906	-288.7033386230469	1036.063842773438	-784.6750488281252	-468.5468750000001	1100.100341796875	-894.2324218750002	-476.2129821777345	1071.76806640625	-922.2038574218752	-483.0140991210939	1071.038330078125	-868.0975341796877	-402.2557373046876	800.1917114257815	-1093.057373046875	-362.1863098144532	727.2272949218751	-1108.626708984375	-315.1798400878907	732.9496459960939	-1110.6376953125	-381.3508300781251	672.1181640625001	-1099.760620117188	-355.9510803222657	541.7484130859376	-1107.799560546875	-355.6413574218751	505.9153137207032	-979.6458740234377	-324.6646118164063	314.9199829101563	-1095.990234375	-395.2621459960939	282.6522827148438	-1140.290649414063	-353.1451416015626	272.9378662109376	-1126.6455078125	-346.8107910156251	191.072494506836	-1100.99658203125	-414.4021911621095	100.6686477661133	-1121.5771484375	-376.3810119628907	108.8181915283203	-1041.308349609375	-465.4156799316407	43.50023651123048	-1076.041259765625	-241.1941833496094	57.97287750244142	-1080.065673828125	-248.6306152343751	56.28049850463869	-1126.668334960938	-300.5498046875001	31.82939147949219	-1170.358276367188	-395.0109863281251	796.3275146484377	-687.5691528320314	-364.7989196777344	737.5432128906251	-676.5322875976564	-332.7996520996094	735.5424194335939	-678.7134399414064	-399.5750122070314	660.9877319335939	-684.1069335937501	-395.7263488769532	526.9645385742189	-675.8493041992189	-369.4327697753907	498.774627685547	-802.8911132812502	-357.0166931152344	337.5750122070313	-663.4301757812501	-437.5682678222657	270.2676086425782	-640.0192871093751	-392.1807250976564	261.8541870117188	-641.9176025390626	-374.6409912109376	210.6982727050782	-664.6328125000001	-436.5957946777345	102.0375061035157	-635.5374145507814	-406.5957641601564	105.0782470703125	-720.4409179687501	-489.3706970214845	45.60871887207032	-691.4058227539064	-267.5830383300782	59.81909179687501	-666.6683959960939	-278.1881408691407	62.35367965698244	-627.6956787109376	-323.5527648925782	36.25310516357423	-580.4428100585939	nan	nan	nan	nan	nan	nan	
